<svg class="pt-3 img-fluid" id="cta-hero-image" height="654.54324" viewBox="0 0 1139.17088 654.54324" width="1139.17088" xmlns="http://www.w3.org/2000/svg" xmlns:xlink="http://www.w3.org/1999/xlink"><linearGradient id="a" gradientUnits="userSpaceOnUse" x1="947.41211" x2="947.41437" y1="188.15918" y2="190.09714"><stop offset="0" stop-color="#ebe9ed"/><stop offset="1" stop-color="#212529" stop-opacity="0"/></linearGradient><circle cx="246.82682" cy="521.76476" fill="#f2f2f2" r="59.24334"/><circle cx="256.45989" cy="513.095" fill="#007bff" r="59.24334"/>

<path d="m406.17137 560.54324h732.99951v2h-732.99951z" fill="#3f3d56"/><path d="m192.67161 652.54324h254.99951v2h-254.99951z" fill="#3f3d56"/><path d="m471 550h28v28h-28z" fill="#007bff"/><path d="m546.41456 684.72838h-34v-34h34zm-32.52174-1.47826h31.04348v-31.04348h-31.04348z" fill="#3f3d56" transform="translate(-30.41456 -122.72838)"/>

<g class="svg-computer-decoration-group">
	<path d="m304.17137 447.54324h732.99951v2h-732.99951z" fill="#3f3d56"/>
	<path d="m586.17137 32.54324h254.99951v2h-254.99951z" fill="#3f3d56"/>

	<path d="m796 22h28v28h-28z" fill="#007bff"/>
	<path d="m871.41456 156.72838h-34v-34h34zm-32.52174-1.47826h31.04348v-31.04348h-31.04348z" fill="#3f3d56" transform="translate(-30.41456 -122.72838)"/>
</g>

<path d="m1078 550h28v28h-28z" fill="#007bff"/><path d="m1153.41456 684.72838h-34v-34h34zm-32.52174-1.47826h31.04348v-31.04348h-31.04348z" fill="#3f3d56" transform="translate(-30.41456 -122.72838)"/>

<g class="svg-computer-group">
	<path class="svg-computer" d="m714.20735 141.38055h-260.1696v-5.36232h-117.971v5.36232h-261.24208a17.5985 17.5985 0 0 0 -17.59852 17.59851v356.25219a17.59856 17.59856 0 0 0 17.59852 17.59858h639.38268a17.59856 17.59856 0 0 0 17.59852-17.59858v-356.25219a17.5985 17.5985 0 0 0 -17.59852-17.59851z" fill="#3f3d56" transform="translate(-30.41456 -122.72838)"/><circle class="svg-computer" cx="363.56522" cy="33.66667" fill="#007bff" r="6.43478"/>
	<path class="svg-computer" d="m49.260799 50.404366h630.22467v350.64096h-630.22467z" fill="#fff"/>
	<path class="svg-computer" d="m749.42165 519.96024h-61.22931v-4.41153a.87468.87468 0 0 0 -.87471-.87471h-20.9929a.87468.87468 0 0 0 -.87471.87471v4.41153h-13.12057v-4.41153a.87467.87467 0 0 0 -.8747-.87471h-20.99291a.87468.87468 0 0 0 -.8747.87471v4.41153h-13.12057v-4.41153a.87468.87468 0 0 0 -.8747-.87471h-20.99287a.87468.87468 0 0 0 -.87471.87471v4.41153h-13.1206v-4.41153a.87468.87468 0 0 0 -.87471-.87471h-20.99291a.87468.87468 0 0 0 -.8747.87471v4.41153h-13.12057v-4.41153a.87468.87468 0 0 0 -.8747-.87471h-20.99291a.87467.87467 0 0 0 -.8747.87471v4.41153h-13.12057v-4.41153a.87468.87468 0 0 0 -.87471-.87471h-20.9929a.87468.87468 0 0 0 -.87471.87471v4.41153h-13.1206v-4.41153a.87468.87468 0 0 0 -.8747-.87471h-164.44442a.87468.87468 0 0 0 -.8747.87471v4.41153h-13.12057v-4.41153a.87468.87468 0 0 0 -.8747-.87471h-20.99291a.87467.87467 0 0 0 -.8747.87471v4.41153h-13.12057v-4.41153a.87468.87468 0 0 0 -.87471-.87471h-20.9929a.87468.87468 0 0 0 -.87471.87471v4.41153h-13.12057v-4.41153a.87467.87467 0 0 0 -.8747-.87471h-20.99291a.87468.87468 0 0 0 -.8747.87471v4.41153h-13.12053v-4.41153a.87468.87468 0 0 0 -.8747-.87471h-20.99295a.87468.87468 0 0 0 -.87471.87471v4.41153h-13.12056v-4.41153a.87468.87468 0 0 0 -.87471-.87471h-20.99291a.87468.87468 0 0 0 -.8747.87471v4.41153h-13.12057v-4.41153a.87468.87468 0 0 0 -.8747-.87471h-20.99291a.87467.87467 0 0 0 -.8747.87471v4.41153h-40.23641a20.99293 20.99293 0 0 0 -20.99291 20.99291v9.4925a20.99291 20.99291 0 0 0 20.99291 20.99285h698.01418a20.9929 20.9929 0 0 0 20.99291-20.99285v-9.4925a20.99292 20.99292 0 0 0 -20.99291-20.99291z" fill="#3f3d56" transform="translate(-30.41456 -122.72838)"/>
	<path class="svg-computer" d="m49.441711 50.229683h630.05048v38.986488h-630.05048z" fill="#f6f7fd"/>
	<g class="svg-computer" transform="matrix(.2284673 0 0 .23405516 60.81502 58.837361)"><path d="m0 0c2.382-3.353 4.636-6.774 6.959-10.159 2.274-3.41 4.538-6.826 6.765-10.262 4.477-6.858 8.844-13.775 13.189-20.704l6.447-10.431 6.361-10.476c2.133-3.486 4.19-7.011 6.286-10.517 2.092-3.506 4.175-7.018 6.22-10.551l6.166-10.58 6.075-10.628c4.08-7.07 8-14.224 12.008-21.332l11.773-21.457 5.79-10.78c1.919-3.599 3.883-7.174 5.765-10.793l-16.183-.651c3.161 7.183 6.26 14.394 9.471 21.555l4.817 10.743c1.594 3.586 3.221 7.157 4.867 10.721l4.912 10.701 4.991 10.667c1.679 3.549 3.316 7.116 5.032 10.65l5.101 10.619 5.176 10.588c1.723 3.53 3.464 7.052 5.237 10.56 1.772 3.509 3.502 7.036 5.31 10.53l5.393 10.493 5.486 10.453c1.853 3.474 3.694 6.953 5.589 10.409 1.873 3.465 3.786 6.913 5.71 10.357 1.967 3.424 3.869 6.877 5.897 10.275-1.086-3.805-2.298-7.556-3.445-11.336-1.191-3.76-2.392-7.516-3.633-11.254-1.22-3.748-2.493-7.472-3.754-11.202l-3.856-11.158-3.95-11.117c-1.307-3.71-2.69-7.387-4.033-11.081-1.341-3.696-2.714-7.377-4.105-11.051l-4.167-11.023-4.241-10.991c-1.399-3.671-2.875-7.307-4.311-10.962l-4.351-10.943-4.431-10.91c-1.469-3.64-2.956-7.272-4.476-10.89l-4.526-10.868c-3.017-7.246-6.146-14.443-9.214-21.667l-7.258-17.093-8.925 16.442c-1.946 3.585-3.81 7.214-5.719 10.818l-5.694 10.831-11.194 21.765c-3.648 7.299-7.383 14.552-10.959 21.89l-5.408 10.982-5.318 11.031c-1.783 3.671-3.528 7.363-5.263 11.06-1.732 3.698-3.503 7.376-5.198 11.094l-5.123 11.134-5.037 11.18c-3.311 7.479-6.599 14.969-9.777 22.518-1.602 3.768-3.165 7.556-4.719 11.349-1.505 3.819-3.079 7.601-4.525 11.452" fill="#007bff" transform="matrix(.35277777 0 0 -.35277777 31.796996 18.944692)"/><path d="m2.4088432 18.944692c.8403167 1.182864 1.6354775 2.389717 2.4549805 3.58387.8022171 1.202972 1.6009061 2.408061 2.3865421 3.620205 1.5793859 2.41935 3.1199662 4.859514 4.6527862 7.303912l2.274358 3.679825 2.24402 3.6957c.752475 1.229783 1.478139 2.473325 2.217561 3.710162.738011 1.236839 1.472847 2.475796 2.194277 3.722158l2.175228 3.73239 2.143125 3.749323c1.439333 2.494137 2.822222 5.01791 4.236156 7.525454l4.153252 7.569552 2.042584 3.802946c.676981 1.269645 1.369835 2.530827 2.033764 3.807529l-5.709004.229658c1.115131-2.534002 2.20839-5.077883 3.341158-7.604125l1.699332-3.789892c.562326-1.26506 1.136298-2.524829 1.716968-3.782129l1.732846-3.775075 1.760712-3.763081c.591963-1.252008 1.169813-2.510367 1.77518-3.757083l1.799519-3.746146 1.825976-3.735213c.607838-1.245303 1.222024-2.487787 1.847499-3.725333.625123-1.237895 1.235426-2.482144 1.87325-3.71475l1.902531-3.701695 1.935337-3.68794c.65405-1.225197 1.30316-2.452511 1.971675-3.671711.660752-1.222375 1.335617-2.438753 2.01436-3.653719.693915-1.207911 1.364898-2.426053 2.080332-3.624792-.383117 1.34232-.810684 2.665589-1.215319 3.999089-.420158 1.326444-.843846 2.651478-1.281641 3.970161-.43039 1.322211-.879475 2.635955-1.323975 3.951817l-1.360665 3.936295-1.393471 3.921828c-.461081 1.308807-.948973 2.605972-1.422754 3.909132-.473075 1.303866-.957437 2.602441-1.448152 3.898548l-1.470025 3.888668-1.496132 3.877382c-.493535 1.295045-1.014235 2.577745-1.520825 3.86715l-1.534935 3.860445-1.563158 3.848807c-.518232 1.28411-1.04281 2.5654-1.579033 3.84175l-1.596674 3.833987c-1.064328 2.556229-2.16817 5.095171-3.250493 7.643638l-2.56046 6.030029-3.148542-5.800371c-.686506-1.264708-1.344083-2.54494-2.017538-3.81635l-2.008715-3.820938-3.948995-7.678208c-1.286933-2.574925-2.604558-5.133621-3.866091-7.722304l-1.907823-3.874206-1.876072-3.891492c-.629003-1.295045-1.2446-2.597502-1.856669-3.90172-.611011-1.304574-1.235781-2.60209-1.833739-3.913717l-1.807281-3.92783-1.7769413-3.944053c-1.168048-2.638426-2.3279809-5.280732-3.4491089-7.943851-.5651501-1.329266-1.1165411-2.665589-1.6647581-4.003675-.5309306-1.347258-1.0862028-2.681464-1.5963195-4.040011" fill="#007bff"/><path d="m0 0c1.43 4.467 2.986 8.878 4.477 13.319 1.535 4.42 3.08 8.837 4.665 13.235l4.784 13.181 4.888 13.136 4.98 13.094c1.65 4.37 3.378 8.704 5.064 13.058 1.684 4.354 3.402 8.693 5.135 13.025l5.197 12.998 5.27 12.964c1.742 4.329 3.563 8.621 5.341 12.934l5.381 12.915 5.459 12.881c1.81 4.298 3.643 8.586 5.505 12.86l5.555 12.838c1.836 4.286 3.74 8.542 5.619 12.809l5.651 12.796 7.578 17.159 8.645-16.756c2.189-4.243 4.299-8.526 6.453-12.786l6.43-12.799 12.662-25.697 6.238-12.896c2.089-4.293 4.152-8.6 6.189-12.92l6.142-12.945 6.05-12.991c2.028-4.325 4.015-8.67 5.995-13.019 1.976-4.351 3.99-8.683 5.929-13.052l5.853-13.091 5.767-13.135c3.797-8.781 7.571-17.573 11.235-26.421 1.844-4.418 3.65-8.855 5.446-13.297 1.747-4.467 3.564-8.899 5.251-13.397-2.632 4.018-5.135 8.102-7.707 12.151-2.522 4.074-5.035 8.152-7.51 12.25-4.975 8.184-9.838 16.423-14.679 24.675l-7.19 12.413-7.104 12.456c-2.38 4.146-4.685 8.331-7.028 12.496-2.339 4.166-4.67 8.337-6.962 12.528l-6.907 12.557-6.815 12.603c-2.282 4.196-4.538 8.404-6.767 12.627l-6.72 12.651-13.251 25.399-6.527 12.749c-2.165 4.255-4.374 8.488-6.504 12.761l16.223.404-5.747-12.753c-1.92-4.248-3.815-8.508-5.777-12.738l-5.843-12.71c-1.937-4.241-3.904-8.469-5.893-12.687l-5.938-12.667-6.016-12.632c-2.022-4.204-3.999-8.427-6.057-12.614l-6.126-12.583-6.201-12.55c-2.066-4.184-4.147-8.361-6.262-12.523-2.114-4.162-4.185-8.344-6.334-12.49l-6.417-12.454-6.51-12.412-6.613-12.365c-2.213-4.118-4.468-8.218-6.732-12.313-2.308-4.076-4.551-8.18-6.92-12.229" fill="#231f20" transform="matrix(.35277777 0 0 -.35277777 14.467282 85.582961)"/></g>
	<g class="svg-computer" font-family="sans-serif"><text fill-opacity=".9" font-size="12.3774" stroke-width="1.03145" transform="scale(1.0314484 .96951044)" x="84.846107" y="76.049179"><tspan fill-opacity=".9" font-family="Segoe UI" font-size="12.3774" stroke-width="1.03145" x="84.846107" y="76.049179">webtoapp.design</tspan></text><text font-size="11.7646" stroke-width=".98038" transform="scale(.98037967 1.020013)" x="441.85791" y="72.849274"><tspan fill-opacity=".5" font-family="Segoe UI" font-size="11.7646" stroke-width=".98038" x="441.85791" y="72.849274">Contact</tspan></text><text font-size="11.6008" stroke-width=".966731" transform="scale(.96673074 1.0344142)" x="510.17953" y="71.607399"><tspan fill-opacity=".5" font-family="Segoe UI" font-size="11.6008" stroke-width=".966731" x="510.17953" y="71.607399">Examples</tspan></text><text font-size="11.6991" stroke-width=".974927" transform="scale(.97492703 1.0257178)" x="571.77216" y="72.432159"><tspan fill-opacity=".5" font-family="Segoe UI" font-size="11.6991" stroke-width=".974927" x="571.77216" y="72.432159">Dashboard</tspan></text><text font-size="11.6845" stroke-width=".973709" transform="scale(.97370926 1.0270006)" x="643.57001" y="72.174294"><tspan fill-opacity=".5" font-family="Segoe UI" font-size="11.6845" stroke-width=".973709" x="643.57001" y="72.174294">Log out</tspan></text><text fill="#212529" font-size="26.6667" transform="matrix(.96720804 0 0 .93209005 658.94848 3.698569)" xml:space="preserve"><tspan x="-594.53125" y="176.67259"><tspan fill="#212529" font-family="Segoe UI" font-size="26.6667" font-weight="bold">We turn your </tspan></tspan><tspan x="-594.53125" y="210.31465"><tspan fill="#212529" font-family="Segoe UI" font-size="26.6667" font-weight="bold">website into an app </tspan></tspan><tspan x="-594.53125" y="243.95671"><tspan fill="#212529" font-family="Segoe UI" font-size="26.6667" font-weight="bold">for Android and iOS.</tspan></tspan></text></g>
	<text class="svg-computer" font-family="sans-serif" font-size="13.3333" transform="matrix(.96236653 0 0 1.1552391 662.62407 -39.261481)" xml:space="preserve"><tspan x="-601.31641" y="257.44172"><tspan fill="#212529" font-family="Segoe UI" font-size="13.3333" font-weight="300">Converting a website to an app has never been </tspan></tspan><tspan x="-601.31641" y="274.2627"><tspan fill="#212529" font-family="Segoe UI" font-size="13.3333" font-weight="300">this easy. We handle all the technical aspects of </tspan></tspan><tspan x="-601.31641" y="291.08369"><tspan fill="#212529" font-family="Segoe UI" font-size="13.3333" font-weight="300">creating and publishing your app in the app </tspan></tspan><tspan x="-601.31641" y="307.90467"><tspan fill="#212529" font-family="Segoe UI" font-size="13.3333" font-weight="300">stores.</tspan></tspan></text>
	<svg class="recurse svg-computer" viewBox="0 0 1139.17088 654.54324" x="387.19614" y="165.59412" width="263.2627" height="155.24352"></svg>
</g>

<g class="svg-phone-group">
	<path class="svg-phone" d="m1087.58593 354.6866h-2.37862v-65.1616a37.71374 37.71374 0 0 0 -37.71385-37.71377h-138.05346a37.71373 37.71373 0 0 0 -37.71387 37.71377v357.48139a37.71374 37.71374 0 0 0 37.71387 37.71378h138.05348a37.71374 37.71374 0 0 0 37.71385-37.71378v-245.9367h2.37862z" fill="#3f3d56" transform="translate(-30.41456 -122.72838)"/>
	<path class="svg-phone" d="m1046.2005 168.1568v356.96a28.16523 28.16523 0 0 1 -28.1602 28.17h-138.71976a28.16511 28.16511 0 0 1 -28.16-28.17v-356.96a28.163 28.163 0 0 1 28.16-28.16h16.83a13.3792 13.3792 0 0 0 12.39 18.43h79.09002a13.37908 13.37908 0 0 0 12.39004-18.43h18.0199a28.16308 28.16308 0 0 1 28.16 28.16z" fill="#fff"/><path class="svg-phone" d="m1045.6676 158.47655c-92.41973.0503-96.66606.0342-192.91928.18409 3.01666-8.01503 11.02055-18.66221 26.57222-18.66384h16.83c-3.58765 8.8002 2.88659 18.43056 12.39 18.43h79.09c9.50346.00066 15.97776-9.6298 12.38996-18.43h18.02c15.5516.002 19.3118 6.76515 27.6271 18.47975z" fill="#bfbfbf"/><path class="svg-phone" d="m863.32373 169.77086h9.191025v1.26h-9.191025z"/><text class="svg-phone" font-family="Roboto" font-size="10.1757" stroke-width="1.09026" transform="scale(.98290444 1.0173929)" x="903.25708" y="174.28171"><tspan font-family="Roboto" font-size="10.1757" stroke-width="1.09026" x="903.25708" y="174.28171">webtoapp.design</tspan></text><text class="svg-phone" fill="#212529" font-family="sans-serif" font-size="20" transform="matrix(.94698527 0 0 1.024568 44.094026 -19.393741)" xml:space="preserve"><tspan x="869.30078" y="233.54739"><tspan fill="#212529" font-family="Segoe UI" font-size="20" font-weight="bold">We turn your </tspan></tspan><tspan x="869.30078" y="258.77891"><tspan fill="#212529" font-family="Segoe UI" font-size="20" font-weight="bold">website into an </tspan></tspan><tspan x="869.30078" y="284.01043"><tspan fill="#212529" font-family="Segoe UI" font-size="20" font-weight="bold">app for Android </tspan></tspan><tspan x="869.30078" y="309.24194"><tspan fill="#212529" font-family="Segoe UI" font-size="20" font-weight="bold">and iOS.</tspan></tspan></text><text class="svg-phone" font-family="sans-serif" font-size="10.6667" transform="matrix(.97829659 0 0 1.0884146 2.00575 -75.205195)" x="884.22174" xml:space="preserve" y="363.66495"><tspan x="884.22174" y="363.66495"><tspan fill="#212529" font-family="Segoe UI" font-size="10.6667" font-weight="300">Converting a website to an app has </tspan></tspan><tspan x="884.22174" y="377.12178"><tspan fill="#212529" font-family="Segoe UI" font-size="10.6667" font-weight="300">never been this easy. We handle all </tspan></tspan><tspan x="884.22174" y="390.57863"><tspan fill="#212529" font-family="Segoe UI" font-size="10.6667" font-weight="300">the technical aspects of creating and </tspan></tspan><tspan x="884.22174" y="404.03548"><tspan fill="#212529" font-family="Segoe UI" font-size="10.6667" font-weight="300">publishing your app in the app </tspan></tspan><tspan x="884.22174" y="417.49233"><tspan fill="#212529" font-family="Segoe UI" font-size="10.6667" font-weight="300">stores.</tspan></tspan></text><path class="svg-phone" d="m851.15564 188.14587h195.04834v2.254776h-195.04834z" fill="url(#a)"/><svg class="recurse svg-phone" viewBox="0 0 1139.17088 654.54324" x="857.89807" y="407.96747" width="180.09126" height="124.57233"></svg><path class="svg-phone" d="m863.27173 172.4657h9.191025v1.26h-9.191025z"/><path class="svg-phone" d="m863.27173 175.10242h9.191025v1.26h-9.191025z"/>
</g>

<path d="m350.58593 777.27162a87 87 0 1 1 87-87 87.09858 87.09858 0 0 1 -87 87zm0-172a85 85 0 1 0 85 85 85.09629 85.09629 0 0 0 -85-85z" fill="#3f3d56" transform="translate(-30.41456 -122.72838)"/>
<path class="svg-arrow" d="m17.160829 8.4370152-.566858.4368728-4.578719 3.53526-.404024.309838a.22571149.36147844 0 0 1 -.305355-.189518.2215197.35476528 0 0 1 -.01612-.133747v-2.088313a.22571149.36147844 0 0 0 -.224098-.3614785h-11.17594373a.22571149.36147844 0 0 1 -.2257111-.3588965v-2.9486313a.22571149.36147844 0 0 1 .2257111-.3614783h11.17594373a.22571149.36147844 0 0 0 .224099-.3588966v-2.1347883a.2215197.35476528 0 0 1 .01612-.1337471.22571149.36147844 0 0 1 .306-.1884851l.403379.3144864 4.578719 3.5724395.567825.4415201a.22571149.36147844 0 0 1 -.000913.6475629z" fill="#007bff" transform="matrix(6.4991702 0 0 4.9996053 718.91741 211.55466)"/></svg>